# xmcd CD database file
#
# Track frame offsets:
#	150
#	40425
#	68850
#	100200
#	128550
#	165375
#	183600
#	217500
#	240075
#	272700
#
# Disc length: 4173 seconds
#
# Revision: 0
# Processed by: cddbd v1.5.1PL2 Copyright (c) Steve Scherf et al.
# Submitted via: CDex 1.50beta10
#
DISCID=7d104b0a
DTITLE=Grover Washington Jr. - All My Tomorrows
DYEAR=1994
DGENRE=Jazz
TTITLE0=E Priciso Peroar
TTITLE1=When I Fall In Love
TTITLE2=I'm Glad There Is You
TTITLE3=All My Tomorrows
TTITLE4=Nature Boy
TTITLE5=Please Send Me Someone To Love
TTITLE6=Overjoyed
TTITLE7=Flamingo
TTITLE8=For Heaven's Sake
TTITLE9=Estate
EXTD=YEAR: 1994
EXTT0=
EXTT1=
EXTT2=
EXTT3=
EXTT4=
EXTT5=
EXTT6=
EXTT7=
EXTT8=
EXTT9=
PLAYORDER=
